<svg xmlns="http://www.w3.org/2000/svg" xmlns:xlink="http://www.w3.org/1999/xlink" width="60" height="60" viewBox="0 0 60 60">
  <defs>
    <clipPath id="clip-path">
      <rect id="Retângulo_6" data-name="Retângulo 6" width="60" height="60" transform="translate(455 370)" fill="#fff" stroke="#707070" stroke-width="1"/>
    </clipPath>
  </defs>
  <g id="Grupo_de_máscara_1" data-name="Grupo de máscara 1" transform="translate(-455 -370)" clip-path="url(#clip-path)">
    <g id="github" transform="translate(455.233 370)">
      <rect id="Retângulo_10" data-name="Retângulo 10" width="59.535" height="59.535" rx="8.93" fill="#cc5418"/>
      <path id="Caminho_1" data-name="Caminho 1" d="M38.953,58.023c1.628,0,1.4,1.977,1.4,1.977H19.186s-.233-1.977,1.4-1.977c1.512,0,1.86-.7,1.86-1.4l-.116-5.814c-8.256,1.86-10-3.256-10-3.256-1.4-3.488-3.256-4.3-3.256-4.3-2.791-1.86.116-1.86.116-1.86a6.5,6.5,0,0,1,4.651,3.023c2.558,4.535,6.86,3.256,8.6,2.558a6.668,6.668,0,0,1,1.86-4.07c-6.628-.7-13.488-3.256-13.488-14.651a11.78,11.78,0,0,1,3.023-8.023c-.349-.7-1.279-3.721.349-7.791,0,0,2.442-.814,8.14,3.023a26.983,26.983,0,0,1,14.884,0c5.7-3.837,8.14-3.023,8.14-3.023,1.628,4.07.7,7.093.349,7.791a11.78,11.78,0,0,1,3.023,8.023c0,11.4-6.977,13.953-13.6,14.651,1.163.93,2.093,2.791,2.093,5.581l-.116,8.14C37.093,57.326,37.442,58.023,38.953,58.023Z" fill="#fff"/>
    </g>
  </g>
</svg>
